<svg width="109" height="36" viewBox="0 0 109 36" fill="none" xmlns="http://www.w3.org/2000/svg">
<g clip-path="url(#clip0_7279_6437)">
<path d="M100.32 0.000117H8.68498C8.35096 0.000117 8.02095 0.000117 7.68781 0.001917C7.40894 0.003717 7.1323 0.008946 6.85075 0.013347C6.23911 0.0204586 5.6289 0.0736256 5.02543 0.172386C4.42282 0.273296 3.83907 0.463541 3.29395 0.736686C2.7495 1.01214 2.25202 1.37007 1.81955 1.79748C1.38482 2.22369 1.02243 2.71633 0.746332 3.25646C0.469469 3.79552 0.277492 4.37316 0.17703 4.96945C0.0756133 5.56498 0.0210399 6.16739 0.0137999 6.77125C0.00534689 7.04719 0.00445422 7.32405 0 7.60002V28.4029C0.00445422 28.6823 0.00534689 28.953 0.0137999 29.2326C0.0210421 29.8364 0.0756155 30.4388 0.17703 31.0343C0.277215 31.6309 0.469203 32.2089 0.746332 32.7481C1.02231 33.2865 1.38474 33.7772 1.81955 34.201C2.25038 34.6303 2.74818 34.9885 3.29395 35.2618C3.83907 35.5357 4.42275 35.7271 5.02543 35.8296C5.629 35.9275 6.23915 35.9807 6.85075 35.9887C7.1323 35.9948 7.40894 35.9983 7.68781 35.9983C8.02094 36.0001 8.35098 36.0001 8.68498 36.0001H100.32C100.647 36.0001 100.98 36.0001 101.307 35.9983C101.585 35.9983 101.87 35.9948 102.147 35.9887C102.758 35.9812 103.367 35.928 103.969 35.8296C104.573 35.7264 105.159 35.5351 105.707 35.2618C106.252 34.9883 106.75 34.6302 107.18 34.201C107.614 33.7755 107.977 33.2852 108.256 32.7481C108.531 32.2085 108.722 31.6306 108.82 31.0343C108.922 30.4387 108.978 29.8365 108.989 29.2326C108.993 28.953 108.993 28.6823 108.993 28.4029C109 28.0759 109 27.7507 109 27.4184V8.58263C109 8.25305 109 7.92609 108.993 7.60002C108.993 7.32405 108.993 7.04719 108.989 6.77121C108.978 6.1673 108.922 5.56503 108.82 4.96941C108.721 4.37347 108.531 3.79587 108.256 3.25643C107.694 2.17379 106.802 1.29254 105.707 0.736605C105.159 0.464128 104.573 0.273933 103.969 0.172305C103.367 0.0731095 102.758 0.019924 102.147 0.013221C101.87 0.008829 101.585 0.003555 101.307 0.0018C100.98 0 100.647 0 100.32 0V0.000117Z" fill="#A6A6A6"/>
<path d="M7.69245 35.2131C7.41493 35.2131 7.1441 35.2096 6.86875 35.2035C6.29834 35.1961 5.72926 35.147 5.16618 35.0567C4.64114 34.9673 4.13252 34.8011 3.65709 34.5636C3.18602 34.328 2.75636 34.019 2.38458 33.6486C2.00742 33.2826 1.69342 32.858 1.45502 32.3918C1.21399 31.9225 1.04718 31.4195 0.960408 30.9003C0.8667 30.3424 0.816 29.7783 0.808746 29.2128C0.802971 29.023 0.79541 28.391 0.79541 28.391V7.60049C0.79541 7.60049 0.803462 6.97822 0.808791 6.79541C0.815737 6.23082 0.866142 5.66757 0.95957 5.11054C1.0465 4.58991 1.21344 4.08546 1.4546 3.61465C1.69212 3.14874 2.00438 2.72386 2.37927 2.3565C2.75374 1.98565 3.18477 1.67513 3.65664 1.43627C4.13098 1.19947 4.63864 1.03445 5.16262 0.946729C5.72755 0.855438 6.2986 0.806082 6.87099 0.799075L7.6929 0.788086H101.303L102.135 0.799516C102.702 0.806175 103.268 0.855091 103.828 0.945847C104.357 1.03466 104.87 1.20084 105.35 1.43891C106.295 1.92027 107.064 2.68183 107.549 3.61685C107.787 4.08441 107.951 4.58474 108.037 5.10088C108.131 5.66248 108.184 6.23015 108.195 6.79937C108.198 7.05425 108.198 7.32803 108.198 7.60049C108.205 7.93799 108.205 8.25923 108.205 8.5831V27.4189C108.205 27.7459 108.205 28.0649 108.198 28.3866C108.198 28.6793 108.198 28.9474 108.194 29.2233C108.184 29.7824 108.132 30.3399 108.039 30.8915C107.954 31.4144 107.788 31.9213 107.547 32.3945C107.307 32.8556 106.994 33.2765 106.622 33.6416C106.25 34.014 105.819 34.3247 105.347 34.5618C104.869 34.8012 104.356 34.9681 103.828 35.0567C103.265 35.1475 102.695 35.1966 102.125 35.2035C101.858 35.2096 101.579 35.2131 101.308 35.2131L100.32 35.2149L7.69245 35.2131Z" fill="black"/>
<path d="M22.5616 18.2711C22.5714 17.5199 22.7734 16.7833 23.1487 16.13C23.524 15.4766 24.0605 14.9277 24.7082 14.5342C24.2967 13.9536 23.7539 13.4757 23.1228 13.1386C22.4917 12.8015 21.7898 12.6145 21.0727 12.5923C19.5431 12.4337 18.0602 13.4967 17.2808 13.4967C16.4863 13.4967 15.2862 12.6081 13.9939 12.6343C13.158 12.661 12.3433 12.9012 11.6293 13.3314C10.9153 13.7617 10.3262 14.3674 9.91956 15.0894C8.15791 18.103 9.47194 22.5319 11.1595 24.9679C12.0037 26.1607 12.9905 27.4931 14.2816 27.4459C15.5451 27.3941 16.0169 26.6498 17.542 26.6498C19.053 26.6498 19.4957 27.4459 20.813 27.4158C22.1688 27.3941 23.0229 26.2177 23.8376 25.0136C24.4442 24.1637 24.911 23.2243 25.2207 22.2303C24.4331 21.9012 23.7609 21.3502 23.2881 20.6461C22.8152 19.9421 22.5626 19.1161 22.5616 18.2711V18.2711Z" fill="white"/>
<path d="M20.0734 10.9902C20.8127 10.1134 21.1768 8.98644 21.0886 7.84863C19.9593 7.96583 18.9161 8.49913 18.1669 9.34228C17.8006 9.75418 17.5201 10.2334 17.3413 10.7525C17.1625 11.2716 17.0891 11.8204 17.1251 12.3675C17.69 12.3733 18.2488 12.2523 18.7595 12.0137C19.2702 11.7752 19.7195 11.4252 20.0734 10.9902Z" fill="white"/>
<path d="M38.5326 24.4259H34.221L33.1856 27.4467H31.3594L35.4432 16.2705H37.3406L41.4245 27.4467H39.5671L38.5326 24.4259ZM34.6676 23.032H38.0852L36.4004 18.1294H36.3533L34.6676 23.032Z" fill="white"/>
<path d="M50.2444 23.3733C50.2444 25.9054 48.8727 27.5323 46.8028 27.5323C46.2784 27.5594 45.757 27.44 45.2981 27.1879C44.8392 26.9358 44.4614 26.5611 44.208 26.1067H44.1689V30.1426H42.4761V19.2987H44.1146V20.6539H44.1458C44.4108 20.2017 44.7949 19.829 45.2573 19.5753C45.7197 19.3216 46.2431 19.1966 46.7717 19.2134C48.8647 19.2134 50.2444 20.8482 50.2444 23.3733ZM48.5045 23.3733C48.5045 21.7236 47.6416 20.639 46.3251 20.639C45.0317 20.639 44.1618 21.7464 44.1618 23.3733C44.1618 25.0151 45.0317 26.1146 46.3251 26.1146C47.6416 26.1146 48.5045 25.0379 48.5045 23.3733Z" fill="white"/>
<path d="M59.3211 23.3733C59.3211 25.9054 57.9494 27.5323 55.8795 27.5323C55.3551 27.5594 54.8336 27.44 54.3747 27.1879C53.9158 26.9358 53.5381 26.5611 53.2847 26.1067H53.2455V30.1426H51.5527V19.2987H53.1912V20.6539H53.2224C53.4874 20.2017 53.8716 19.829 54.334 19.5753C54.7963 19.3216 55.3197 19.1966 55.8483 19.2134C57.9414 19.2134 59.3211 20.8482 59.3211 23.3733ZM57.5811 23.3733C57.5811 21.7236 56.7183 20.639 55.4018 20.639C54.1084 20.639 53.2384 21.7464 53.2384 23.3733C53.2384 25.0151 54.1084 26.1146 55.4018 26.1146C56.7183 26.1146 57.5811 25.0379 57.5811 23.3733H57.5811Z" fill="white"/>
<path d="M65.3202 24.3326C65.4457 25.4409 66.5354 26.1686 68.0244 26.1686C69.4512 26.1686 70.4778 25.4408 70.4778 24.4415C70.4778 23.574 69.8586 23.0546 68.3927 22.6986L66.9267 22.3497C64.8497 21.854 63.8854 20.8942 63.8854 19.3368C63.8854 17.4085 65.5862 16.084 68.0013 16.084C70.3915 16.084 72.03 17.4085 72.0852 19.3368H70.3763C70.274 18.2215 69.3409 17.5482 67.9773 17.5482C66.6136 17.5482 65.6805 18.2294 65.6805 19.2208C65.6805 20.0109 66.2765 20.4759 67.7344 20.8318L68.9806 21.1342C71.3014 21.6764 72.2657 22.5976 72.2657 24.2323C72.2657 26.3232 70.58 27.6328 67.899 27.6328C65.3905 27.6328 63.6968 26.354 63.5874 24.3325L65.3202 24.3326Z" fill="white"/>
<path d="M75.9189 17.3701V19.2984H77.4872V20.623H75.9189V25.115C75.9189 25.8129 76.2329 26.1381 76.9223 26.1381C77.1085 26.1349 77.2944 26.122 77.4792 26.0994V27.416C77.1692 27.4732 76.8542 27.4991 76.5389 27.4933C74.8693 27.4933 74.2181 26.8737 74.2181 25.2934V20.623H73.019V19.2984H74.2181V17.3701H75.9189Z" fill="white"/>
<path d="M78.3955 23.373C78.3955 20.8093 79.9237 19.1982 82.3068 19.1982C84.6979 19.1982 86.219 20.8092 86.219 23.373C86.219 25.9439 84.7059 27.5478 82.3068 27.5478C79.9086 27.5478 78.3955 25.9438 78.3955 23.373ZM84.4941 23.373C84.4941 21.6144 83.6784 20.5764 82.3068 20.5764C80.9351 20.5764 80.1203 21.6223 80.1203 23.373C80.1203 25.1388 80.9351 26.1688 82.3068 26.1688C83.6784 26.1688 84.4941 25.1388 84.4941 23.373H84.4941Z" fill="white"/>
<path d="M87.6143 19.2986H89.2288V20.6855H89.2679C89.3772 20.2523 89.634 19.8695 89.9952 19.6014C90.3565 19.3333 90.8001 19.1963 91.2516 19.2133C91.4467 19.2127 91.6412 19.2336 91.8316 19.2757V20.8402C91.5853 20.7658 91.3284 20.7317 91.071 20.7391C90.8251 20.7293 90.5799 20.7721 90.3523 20.8647C90.1247 20.9573 89.9201 21.0975 89.7526 21.2756C89.585 21.4537 89.4584 21.6655 89.3815 21.8965C89.3046 22.1275 89.2792 22.3722 89.307 22.6138V27.4469H87.6143L87.6143 19.2986Z" fill="white"/>
<path d="M99.6364 25.0535C99.4087 26.5327 97.9508 27.5478 96.0854 27.5478C93.6863 27.5478 92.1973 25.9597 92.1973 23.4117C92.1973 20.8559 93.6943 19.1982 96.0143 19.1982C98.2959 19.1982 99.7307 20.7469 99.7307 23.2175V23.7905H93.9061V23.8916C93.8792 24.1915 93.9172 24.4936 94.0175 24.7778C94.1179 25.0621 94.2783 25.322 94.4882 25.5403C94.698 25.7586 94.9524 25.9303 95.2345 26.0439C95.5167 26.1576 95.8201 26.2107 96.1246 26.1996C96.5246 26.2366 96.926 26.1451 97.2692 25.9386C97.6123 25.7321 97.8788 25.4217 98.0291 25.0535L99.6364 25.0535ZM93.9141 22.6216H98.0371C98.0523 22.3519 98.0109 22.0821 97.9155 21.829C97.8202 21.5759 97.6729 21.3451 97.483 21.1509C97.293 20.9567 97.0645 20.8034 96.8118 20.7006C96.559 20.5978 96.2875 20.5477 96.0143 20.5535C95.7386 20.5519 95.4653 20.6042 95.2103 20.7075C94.9552 20.8108 94.7233 20.9629 94.528 21.1552C94.3328 21.3475 94.178 21.576 94.0726 21.8277C93.9672 22.0794 93.9134 22.3492 93.9141 22.6216V22.6216Z" fill="white"/>
<path d="M34.4554 7.85863C34.8103 7.83347 35.1664 7.88644 35.4981 8.01373C35.8297 8.14102 36.1287 8.33946 36.3733 8.59472C36.618 8.84998 36.8022 9.15571 36.9128 9.48985C37.0234 9.824 37.0575 10.1782 37.0128 10.527C37.0128 12.2426 36.0743 13.2288 34.4554 13.2288H32.4922V7.85863H34.4554ZM33.3363 12.4693H34.3611C34.6147 12.4843 34.8685 12.4432 35.104 12.3491C35.3395 12.2549 35.5508 12.1101 35.7225 11.9251C35.8941 11.74 36.0219 11.5195 36.0965 11.2796C36.1711 11.0396 36.1905 10.7863 36.1535 10.5379C36.1878 10.2906 36.1664 10.0388 36.0907 9.80059C36.015 9.56239 35.8869 9.34369 35.7156 9.16015C35.5443 8.97662 35.334 8.83279 35.0998 8.73898C34.8657 8.64516 34.6134 8.60369 34.3611 8.61752H33.3363V12.4693Z" fill="white"/>
<path d="M37.9662 11.2004C37.9404 10.9341 37.9712 10.6654 38.0567 10.4115C38.1422 10.1576 38.2804 9.92423 38.4625 9.72624C38.6447 9.52826 38.8667 9.37007 39.1143 9.26182C39.3619 9.15357 39.6297 9.09766 39.9005 9.09766C40.1713 9.09766 40.439 9.15357 40.6867 9.26182C40.9343 9.37007 41.1563 9.52826 41.3384 9.72624C41.5205 9.92423 41.6588 10.1576 41.7442 10.4115C41.8297 10.6654 41.8606 10.9341 41.8348 11.2004C41.861 11.467 41.8306 11.7361 41.7453 11.9904C41.6601 12.2446 41.5219 12.4785 41.3398 12.6768C41.1576 12.8752 40.9354 13.0337 40.6875 13.1422C40.4397 13.2507 40.1716 13.3067 39.9005 13.3067C39.6294 13.3067 39.3613 13.2507 39.1134 13.1422C38.8655 13.0337 38.6434 12.8752 38.4612 12.6768C38.279 12.4785 38.1409 12.2446 38.0556 11.9904C37.9704 11.7361 37.9399 11.467 37.9662 11.2004V11.2004ZM41.0022 11.2004C41.0022 10.3219 40.6028 9.80821 39.9018 9.80821C39.1982 9.80821 38.8024 10.3219 38.8024 11.2004C38.8024 12.0859 39.1982 12.5957 39.9018 12.5957C40.6028 12.5957 41.0022 12.0824 41.0022 11.2004H41.0022Z" fill="white"/>
<path d="M46.9774 13.2284H46.1377L45.29 10.2436H45.2259L44.3818 13.2284H43.55L42.4194 9.17578H43.2405L43.9752 12.2682H44.0357L44.879 9.17578H45.6556L46.4988 12.2682H46.5629L47.2941 9.17578H48.1036L46.9774 13.2284Z" fill="white"/>
<path d="M49.0542 9.17597H49.8334V9.81976H49.8939C49.9965 9.58854 50.1696 9.3947 50.389 9.26528C50.6084 9.13585 50.8632 9.07728 51.1179 9.09774C51.3175 9.08291 51.5179 9.11265 51.7043 9.18473C51.8906 9.25682 52.0582 9.36941 52.1945 9.51417C52.3309 9.65893 52.4325 9.83215 52.4919 10.021C52.5513 10.2098 52.5669 10.4094 52.5376 10.6051V13.2286H51.7281V10.8059C51.7281 10.1546 51.4417 9.83075 50.8431 9.83075C50.7076 9.82452 50.5723 9.8473 50.4465 9.89755C50.3208 9.9478 50.2075 10.0243 50.1145 10.1219C50.0215 10.2194 49.9509 10.3357 49.9076 10.4627C49.8643 10.5897 49.8493 10.7245 49.8637 10.8578V13.2286H49.0542L49.0542 9.17597Z" fill="white"/>
<path d="M53.8276 7.59375H54.6371V13.2284H53.8276V7.59375Z" fill="white"/>
<path d="M55.7625 11.2005C55.7368 10.9341 55.7676 10.6654 55.8531 10.4115C55.9386 10.1577 56.0769 9.92424 56.259 9.72625C56.4412 9.52826 56.6632 9.37007 56.9108 9.26182C57.1585 9.15357 57.4263 9.09766 57.6971 9.09766C57.9679 9.09766 58.2357 9.15357 58.4833 9.26182C58.7309 9.37007 58.953 9.52826 59.1351 9.72625C59.3172 9.92424 59.4555 10.1577 59.541 10.4115C59.6265 10.6654 59.6573 10.9341 59.6316 11.2005C59.6578 11.4671 59.6273 11.7362 59.542 11.9904C59.4568 12.2447 59.3186 12.4785 59.1364 12.6769C58.9542 12.8753 58.732 13.0338 58.4842 13.1423C58.2363 13.2507 57.9682 13.3068 57.6971 13.3068C57.426 13.3068 57.1578 13.2507 56.91 13.1423C56.6621 13.0338 56.4399 12.8753 56.2577 12.6769C56.0755 12.4785 55.9374 12.2447 55.8521 11.9904C55.7668 11.7362 55.7363 11.4671 55.7625 11.2005V11.2005ZM58.7985 11.2005C58.7985 10.322 58.3991 9.80829 57.6982 9.80829C56.9946 9.80829 56.5987 10.322 56.5987 11.2005C56.5987 12.086 56.9946 12.5957 57.6982 12.5957C58.3991 12.5957 58.7985 12.0825 58.7985 11.2005H58.7985Z" fill="white"/>
<path d="M60.4834 12.0824C60.4834 11.3529 61.0331 10.9324 62.0089 10.8726L63.12 10.8093V10.4595C63.12 10.0315 62.8335 9.78979 62.2803 9.78979C61.8284 9.78979 61.5153 9.95371 61.4254 10.2402H60.6417C60.7245 9.54414 61.3872 9.09766 62.3176 9.09766C63.3459 9.09766 63.9259 9.60346 63.9259 10.4595V13.2285H63.1467V12.659H63.0826C62.9526 12.8633 62.7701 13.0298 62.5536 13.1416C62.3372 13.2534 62.0946 13.3064 61.8506 13.2953C61.6784 13.313 61.5044 13.2948 61.3397 13.242C61.1751 13.1892 61.0235 13.1028 60.8947 12.9886C60.7658 12.8743 60.6627 12.7346 60.5919 12.5785C60.521 12.4225 60.4841 12.2535 60.4834 12.0824V12.0824ZM63.12 11.7361V11.3973L62.1184 11.4606C61.5535 11.4979 61.2973 11.6878 61.2973 12.0451C61.2973 12.4098 61.6175 12.6221 62.0579 12.6221C62.1869 12.635 62.3173 12.6221 62.4411 12.5842C62.565 12.5463 62.6799 12.4842 62.779 12.4016C62.8781 12.3189 62.9594 12.2174 63.0179 12.1031C63.0765 11.9888 63.1112 11.864 63.12 11.7361V11.7361Z" fill="white"/>
<path d="M64.9897 11.2004C64.9897 9.91979 65.656 9.10856 66.6923 9.10856C66.9487 9.09689 67.2031 9.15755 67.4258 9.28346C67.6485 9.40936 67.8304 9.59531 67.9501 9.81956H68.0106V7.59375H68.8201V13.2284H68.0444V12.5881H67.9804C67.8514 12.8109 67.6632 12.9945 67.4361 13.1191C67.2091 13.2438 66.9519 13.3047 66.6923 13.2952C65.6489 13.2952 64.9897 12.484 64.9897 11.2004ZM65.8259 11.2004C65.8259 12.0599 66.236 12.5772 66.9218 12.5772C67.6041 12.5772 68.0258 12.0525 68.0258 11.2039C68.0258 10.3592 67.5997 9.82706 66.9218 9.82706C66.2404 9.82706 65.8259 10.3478 65.8259 11.2004H65.8259Z" fill="white"/>
<path d="M72.1693 11.2004C72.1435 10.9341 72.1744 10.6654 72.2598 10.4115C72.3453 10.1576 72.4835 9.92423 72.6657 9.72624C72.8478 9.52826 73.0698 9.37007 73.3174 9.26182C73.565 9.15357 73.8328 9.09766 74.1036 9.09766C74.3744 9.09766 74.6422 9.15357 74.8898 9.26182C75.1374 9.37007 75.3594 9.52826 75.5415 9.72624C75.7236 9.92423 75.8619 10.1576 75.9474 10.4115C76.0328 10.6654 76.0637 10.9341 76.0379 11.2004C76.0642 11.467 76.0337 11.7361 75.9484 11.9904C75.8632 12.2446 75.725 12.4785 75.5429 12.6768C75.3607 12.8752 75.1385 13.0337 74.8907 13.1422C74.6428 13.2507 74.3747 13.3067 74.1036 13.3067C73.8325 13.3067 73.5644 13.2507 73.3165 13.1422C73.0686 13.0337 72.8465 12.8752 72.6643 12.6768C72.4821 12.4785 72.344 12.2446 72.2587 11.9904C72.1735 11.7361 72.143 11.467 72.1693 11.2004V11.2004ZM75.2053 11.2004C75.2053 10.3219 74.8059 9.80821 74.1049 9.80821C73.4013 9.80821 73.0055 10.3219 73.0055 11.2004C73.0055 12.0859 73.4013 12.5957 74.1049 12.5957C74.8059 12.5957 75.2053 12.0824 75.2053 11.2004Z" fill="white"/>
<path d="M77.124 9.17597H77.9033V9.81976H77.9638C78.0664 9.58854 78.2394 9.3947 78.4588 9.26528C78.6782 9.13585 78.9331 9.07728 79.1878 9.09774C79.3873 9.08291 79.5877 9.11265 79.7741 9.18473C79.9604 9.25682 80.128 9.36941 80.2644 9.51417C80.4007 9.65893 80.5023 9.83215 80.5617 10.021C80.6211 10.2098 80.6367 10.4094 80.6074 10.6051V13.2286H79.798V10.8059C79.798 10.1546 79.5115 9.83075 78.9129 9.83075C78.7774 9.82452 78.6421 9.8473 78.5164 9.89755C78.3906 9.9478 78.2773 10.0243 78.1843 10.1219C78.0913 10.2194 78.0207 10.3357 77.9774 10.4627C77.9341 10.5897 77.9191 10.7245 77.9335 10.8578V13.2286H77.124V9.17597Z" fill="white"/>
<path d="M85.1817 8.16699V9.19443H86.0704V9.86812H85.1817V11.952C85.1817 12.3765 85.3587 12.5624 85.7617 12.5624C85.8649 12.5621 85.9679 12.5559 86.0704 12.5439V13.2102C85.925 13.2358 85.7777 13.2495 85.63 13.251C84.7298 13.251 84.3714 12.9381 84.3714 12.1568V9.86808H83.7202V9.1944H84.3714V8.16699H85.1817Z" fill="white"/>
<path d="M87.1758 7.59375H87.9781V9.82706H88.0422C88.1498 9.59367 88.3276 9.39873 88.5514 9.26882C88.7752 9.13891 89.0341 9.08033 89.2928 9.10108C89.4914 9.0904 89.6898 9.12315 89.8741 9.19699C90.0583 9.27083 90.2238 9.38394 90.3588 9.52824C90.4937 9.67254 90.5947 9.84449 90.6546 10.0318C90.7145 10.2191 90.7319 10.4172 90.7054 10.6119V13.2284H89.8951V10.8092C89.8951 10.1619 89.59 9.83408 89.018 9.83408C88.8789 9.8228 88.739 9.8417 88.608 9.88945C88.477 9.9372 88.3582 10.0126 88.2599 10.1105C88.1615 10.2084 88.0859 10.3263 88.0385 10.456C87.9911 10.5857 87.9729 10.7241 87.9853 10.8615V13.2284H87.1758L87.1758 7.59375Z" fill="white"/>
<path d="M95.4253 12.1343C95.3154 12.5047 95.0771 12.8251 94.7522 13.0394C94.4273 13.2538 94.0364 13.3484 93.648 13.3068C93.3778 13.3138 93.1093 13.2627 92.8611 13.1569C92.6128 13.0512 92.3909 12.8933 92.2106 12.6943C92.0303 12.4952 91.8961 12.2598 91.8171 12.0044C91.7381 11.749 91.7164 11.4796 91.7533 11.215C91.7173 10.9496 91.7395 10.6797 91.8183 10.4235C91.897 10.1673 92.0306 9.93077 92.2099 9.73001C92.3893 9.52924 92.6102 9.36889 92.8577 9.2598C93.1052 9.15071 93.3735 9.09544 93.6445 9.09772C94.7857 9.09772 95.4742 9.86812 95.4742 11.1407V11.4198H92.5779V11.4646C92.5652 11.6133 92.5842 11.763 92.6335 11.9041C92.6828 12.0452 92.7614 12.1745 92.8642 12.2838C92.9671 12.3932 93.0919 12.48 93.2307 12.5389C93.3695 12.5977 93.5192 12.6273 93.6703 12.6256C93.8639 12.6486 94.0601 12.6141 94.2338 12.5267C94.4076 12.4392 94.5511 12.3026 94.6461 12.1343L95.4253 12.1343ZM92.5779 10.8283H94.6496C94.6598 10.6923 94.6411 10.5557 94.5947 10.4272C94.5483 10.2988 94.4752 10.1813 94.3801 10.0825C94.285 9.98359 94.1701 9.90546 94.0426 9.8531C93.9151 9.80075 93.778 9.77531 93.64 9.77844C93.5 9.7767 93.3611 9.80267 93.2314 9.85482C93.1017 9.90697 92.9839 9.98425 92.8849 10.0821C92.7859 10.1799 92.7078 10.2964 92.6551 10.4245C92.6023 10.5527 92.5761 10.69 92.5779 10.8283H92.5779Z" fill="white"/>
</g>
<defs>
<clipPath id="clip0_7279_6437">
<rect width="109" height="36" fill="white"/>
</clipPath>
</defs>
</svg>
