<svg width="121" height="36" viewBox="0 0 121 36" fill="none" xmlns="http://www.w3.org/2000/svg">
<g clip-path="url(#clip0_7279_6425)">
<path fill-rule="evenodd" clip-rule="evenodd" d="M116.517 36H4.48313C2.01229 36 0 33.9711 0 31.5V4.5C0 2.01995 2.01229 0 4.48313 0H116.517C118.985 0 121 2.01995 121 4.5V31.5C121 33.9711 118.985 36 116.517 36Z" fill="black"/>
<path fill-rule="evenodd" clip-rule="evenodd" d="M116.517 0.720449C118.589 0.720449 120.285 2.41945 120.285 4.5V31.5C120.285 33.5805 118.6 35.2796 116.517 35.2796H4.48313C2.41074 35.2796 0.714541 33.5805 0.714541 31.5V4.5C0.714541 2.41945 2.39961 0.720449 4.48313 0.720449C4.48313 0.720449 116.517 0.720449 116.517 0.720449ZM116.517 0H4.48313C2.01229 0 0 2.02893 0 4.5V31.5C0 33.9801 2.01229 36 4.48313 36H116.517C118.985 36 121 33.9801 121 31.5V4.5C121 2.02893 118.985 0 116.517 0Z" fill="#A6A6A6"/>
<path d="M63.7429 11.9086C62.9348 11.9086 62.2537 11.6235 61.715 11.0624C61.1808 10.517 60.8825 9.76518 60.8959 8.9976C60.8959 8.17839 61.1719 7.48488 61.715 6.935C62.2515 6.3739 62.9326 6.08887 63.7406 6.08887C64.5398 6.08887 65.2209 6.3739 65.7685 6.935C66.3116 7.50283 66.5877 8.19635 66.5877 8.9976C66.5788 9.81904 66.3027 10.5126 65.7685 11.0602C65.232 11.6258 64.5509 11.9086 63.7429 11.9086ZM39.7002 11.9086C38.91 11.9086 38.2244 11.628 37.6634 11.0737C37.1069 10.5215 36.8242 9.82353 36.8242 8.99984C36.8242 8.17615 37.1069 7.47814 37.6634 6.92602C38.2132 6.37166 38.8988 6.09111 39.7002 6.09111C40.0919 6.09111 40.4726 6.16967 40.8376 6.32902C41.196 6.48388 41.4876 6.69485 41.7035 6.95296L41.757 7.01804L41.1537 7.61505L41.0914 7.54099C40.7508 7.13251 40.2945 6.93276 39.6913 6.93276C39.1526 6.93276 38.6829 7.12578 38.2956 7.50732C37.906 7.89111 37.7079 8.39386 37.7079 9.00208C37.7079 9.61031 37.906 10.1131 38.2956 10.4968C38.6829 10.8784 39.1526 11.0714 39.6913 11.0714C40.2656 11.0714 40.7486 10.8784 41.1248 10.4968C41.3474 10.2724 41.4854 9.95819 41.5344 9.56094H39.6V8.72154H42.3647L42.3758 8.79785C42.3958 8.93924 42.4159 9.08513 42.4159 9.21979C42.4159 9.9941 42.1844 10.6203 41.7258 11.0826C41.2049 11.6303 40.5238 11.9086 39.7002 11.9086ZM71.6673 11.7896H70.8148L68.2037 7.5769L68.226 8.3355V11.7874H67.3734V6.21006H68.3462L68.3729 6.25271L70.8281 10.2208L70.8059 9.46443V6.21006H71.6673V11.7896V11.7896ZM57.3365 11.7896H56.4729V7.04947H54.9748V6.21006H58.8324V7.04947H57.3343V11.7896H57.3365ZM54.2714 11.7896H53.4099V6.21006H54.2714V11.7896ZM49.4299 11.7896H48.5684V7.04947H47.0704V6.21006H50.928V7.04947H49.4299V11.7896ZM46.525 11.7806H43.2217V6.21006H46.525V7.04947H44.0853V8.58014H46.2868V9.41056H44.0853V10.9412H46.525V11.7806ZM62.3472 10.4856C62.7323 10.8739 63.1997 11.0692 63.7429 11.0692C64.3016 11.0692 64.7579 10.8784 65.1386 10.4856C65.517 10.1041 65.7084 9.60358 65.7084 8.99984C65.7084 8.3961 65.517 7.89336 65.1408 7.51405C64.7557 7.12577 64.286 6.93051 63.7451 6.93051C63.1864 6.93051 62.7301 7.12129 62.3516 7.51405C61.9732 7.8956 61.7818 8.3961 61.7818 8.99984C61.7818 9.60358 61.971 10.1063 62.3472 10.4856Z" fill="white"/>
<path fill-rule="evenodd" clip-rule="evenodd" d="M60.8161 19.58C58.7126 19.58 57.0075 21.1892 57.0075 23.4089C57.0075 25.6084 58.7237 27.2378 60.8161 27.2378C62.9197 27.2378 64.6248 25.6174 64.6248 23.4089C64.6248 21.1892 62.9197 19.58 60.8161 19.58ZM60.8161 25.7206C59.6653 25.7206 58.6747 24.76 58.6747 23.3999C58.6747 22.0196 59.6675 21.0792 60.8161 21.0792C61.967 21.0792 62.9575 22.0196 62.9575 23.3999C62.9598 24.769 61.967 25.7206 60.8161 25.7206ZM52.5065 19.58C50.403 19.58 48.6979 21.1892 48.6979 23.4089C48.6979 25.6084 50.4141 27.2378 52.5065 27.2378C54.6101 27.2378 56.3152 25.6174 56.3152 23.4089C56.3152 21.1892 54.6079 19.58 52.5065 19.58ZM52.5065 25.7206C51.3557 25.7206 50.3651 24.76 50.3651 23.3999C50.3651 22.0196 51.3579 21.0792 52.5065 21.0792C53.6574 21.0792 54.6479 22.0196 54.6479 23.3999C54.6479 24.769 53.6574 25.7206 52.5065 25.7206ZM42.6187 20.7493V22.3697H46.4763C46.3583 23.2787 46.0601 23.9498 45.6037 24.4099C45.0383 24.98 44.1658 25.5994 42.6276 25.5994C40.2569 25.5994 38.4027 23.6692 38.4027 21.279C38.4027 18.8887 40.2569 16.9585 42.6276 16.9585C43.9075 16.9585 44.8402 17.468 45.5325 18.1189L46.6722 16.9697C45.7106 16.0406 44.4306 15.3291 42.6365 15.3291C39.3843 15.3291 36.6553 17.9999 36.6553 21.27C36.6553 24.5491 39.3821 27.2109 42.6365 27.2109C44.3928 27.2109 45.7106 26.6318 46.7523 25.5411C47.8141 24.4705 48.1503 22.96 48.1503 21.7413C48.1503 21.362 48.1213 21.0209 48.0612 20.7313H42.6165C42.6187 20.7291 42.6187 20.7493 42.6187 20.7493ZM83.0626 22.0106C82.7443 21.151 81.7827 19.571 79.8105 19.571C77.8561 19.571 76.2311 21.1219 76.2311 23.3999C76.2311 25.55 77.8382 27.2288 79.9997 27.2288C81.7359 27.2288 82.7465 26.1583 83.1628 25.5298L81.874 24.659C81.4466 25.2987 80.8522 25.7184 80.0086 25.7184C79.156 25.7184 78.5595 25.3279 78.1632 24.558L83.2407 22.4371C83.2407 22.4393 83.0626 22.0106 83.0626 22.0106ZM77.885 23.2899C77.8449 21.8109 79.0247 21.059 79.8683 21.059C80.5339 21.059 81.0882 21.389 81.2774 21.8693L77.885 23.2899ZM73.7602 26.9999H75.4275V15.751H73.7602V26.9999ZM71.0223 20.4306H70.9622C70.586 19.9795 69.8714 19.571 68.9588 19.571C67.0645 19.571 65.3193 21.252 65.3193 23.4111C65.3193 25.5613 67.0556 27.2221 68.9588 27.2221C69.8603 27.2221 70.586 26.8114 70.9622 26.3513H71.0223V26.9012C71.0223 28.3623 70.2476 29.15 68.9989 29.15C67.9771 29.15 67.3427 28.4094 67.0845 27.7899L65.6354 28.4004C66.0517 29.4104 67.1624 30.6605 68.9966 30.6605C70.951 30.6605 72.6072 29.5002 72.6072 26.67V19.7999H71.0312V20.4306C71.0334 20.4306 71.0223 20.4306 71.0223 20.4306ZM69.1079 25.7206C67.9571 25.7206 66.9955 24.751 66.9955 23.4111C66.9955 22.06 67.9571 21.0815 69.1079 21.0815C70.2476 21.0815 71.1314 22.0712 71.1314 23.4111C71.1425 24.751 70.2499 25.7206 69.1079 25.7206ZM90.8692 15.751H86.8824V26.9999H88.5497V22.7401H90.8714C92.7167 22.7401 94.5309 21.3912 94.5309 19.25C94.5309 17.1089 92.7234 15.751 90.8692 15.751ZM90.9181 21.169H88.5475V17.3087H90.9181C92.1669 17.3087 92.8726 18.3478 92.8726 19.2388C92.8726 20.1209 92.158 21.169 90.9181 21.169ZM101.213 19.5598C100.002 19.5598 98.7536 20.1007 98.2372 21.279L99.7152 21.8984C100.034 21.279 100.617 21.068 101.233 21.068C102.097 21.068 102.97 21.5887 102.99 22.5179V22.6368C102.691 22.4663 102.037 22.2059 101.253 22.2059C99.6574 22.2059 98.0391 23.0857 98.0391 24.7353C98.0391 26.2458 99.348 27.2154 100.806 27.2154C101.926 27.2154 102.542 26.7059 102.927 26.1156H102.987V26.9865H104.595V22.6772C104.595 20.6707 103.117 19.5598 101.213 19.5598ZM101.004 25.7206C100.459 25.7206 99.6952 25.4513 99.6952 24.76C99.6952 23.8892 100.648 23.5593 101.46 23.5593C102.195 23.5593 102.542 23.7186 102.979 23.9386C102.858 24.9486 102.012 25.7116 101.004 25.7206ZM110.458 19.7999L108.544 24.6792H108.483L106.5 19.7999H104.706L107.682 26.6206L105.986 30.4114H107.722L112.301 19.7999H110.458ZM95.4503 26.9999H97.1175V15.751H95.4503V26.9999Z" fill="white"/>
<path fill-rule="evenodd" clip-rule="evenodd" d="M9.3136 6.78033C9.05539 7.06087 8.90625 7.48955 8.90625 8.05065V27.9516C8.90625 28.5127 9.05539 28.9414 9.32251 29.2107L9.39151 29.2713L20.4502 18.1212V17.8721L9.38261 6.71973L9.3136 6.78033Z" fill="url(#paint0_linear_7279_6425)"/>
<path fill-rule="evenodd" clip-rule="evenodd" d="M24.1294 21.8486L20.4409 18.1297V17.8693L24.1294 14.1504L24.2095 14.1998L28.5725 16.7C29.8213 17.4092 29.8213 18.5808 28.5725 19.299L24.2095 21.7993L24.1294 21.8486Z" fill="url(#paint1_linear_7279_6425)"/>
<path fill-rule="evenodd" clip-rule="evenodd" d="M24.2098 21.7998L20.4412 18L9.31348 29.2197C9.72083 29.6596 10.4042 29.709 11.1677 29.2803L24.2098 21.7998Z" fill="url(#paint2_linear_7279_6425)"/>
<path fill-rule="evenodd" clip-rule="evenodd" d="M24.2098 14.2002L11.1677 6.73087C10.4042 6.29097 9.71861 6.35157 9.31348 6.79147L20.4412 18L24.2098 14.2002Z" fill="url(#paint3_linear_7279_6425)"/>
<path opacity="0.2" fill-rule="evenodd" clip-rule="evenodd" d="M24.1296 21.7188L11.1765 29.1387C10.4531 29.5584 9.80753 29.5292 9.39127 29.1476L9.32227 29.2172L9.39127 29.2778C9.80753 29.6571 10.4531 29.6885 11.1765 29.2688L24.2186 21.7995L24.1296 21.7188Z" fill="black"/>
<path opacity="0.12" fill-rule="evenodd" clip-rule="evenodd" d="M28.5728 19.1693L24.1187 21.719L24.1988 21.7998L28.5617 19.2995C29.1872 18.9404 29.4944 18.4691 29.4944 18C29.4566 18.4309 29.1382 18.8394 28.5728 19.1693Z" fill="black"/>
<path opacity="0.25" fill-rule="evenodd" clip-rule="evenodd" d="M11.1678 6.86106L28.5728 16.8306C29.1382 17.1516 29.4565 17.5713 29.5055 18C29.5055 17.5309 29.1983 17.0596 28.5728 16.7005L11.1678 6.73089C9.91907 6.01044 8.90625 6.61194 8.90625 8.05059V8.18076C8.90625 6.73987 9.91907 6.14959 11.1678 6.86106Z" fill="white"/>
</g>
<defs>
<linearGradient id="paint0_linear_7279_6425" x1="19.4583" y1="7.83594" x2="1.72495" y2="12.5223" gradientUnits="userSpaceOnUse">
<stop stop-color="#00A0FF"/>
<stop offset="0.00657" stop-color="#00A1FF"/>
<stop offset="0.2601" stop-color="#00BEFF"/>
<stop offset="0.5122" stop-color="#00D2FF"/>
<stop offset="0.7604" stop-color="#00DFFF"/>
<stop offset="1" stop-color="#00E3FF"/>
</linearGradient>
<linearGradient id="paint1_linear_7279_6425" x1="30.201" y1="17.9996" x2="8.60229" y2="17.9996" gradientUnits="userSpaceOnUse">
<stop stop-color="#FFE000"/>
<stop offset="0.4087" stop-color="#FFBD00"/>
<stop offset="0.7754" stop-color="#FFA500"/>
<stop offset="1" stop-color="#FF9C00"/>
</linearGradient>
<linearGradient id="paint2_linear_7279_6425" x1="22.1605" y1="20.0676" x2="7.76598" y2="44.0962" gradientUnits="userSpaceOnUse">
<stop stop-color="#FF3A44"/>
<stop offset="1" stop-color="#C31162"/>
</linearGradient>
<linearGradient id="paint3_linear_7279_6425" x1="6.5114" y1="0.160863" x2="12.9334" y2="10.8925" gradientUnits="userSpaceOnUse">
<stop stop-color="#32A071"/>
<stop offset="0.0685" stop-color="#2DA771"/>
<stop offset="0.4762" stop-color="#15CF74"/>
<stop offset="0.8009" stop-color="#06E775"/>
<stop offset="1" stop-color="#00F076"/>
</linearGradient>
<clipPath id="clip0_7279_6425">
<rect width="121" height="36" fill="white"/>
</clipPath>
</defs>
</svg>
