<svg width="39" height="38" viewBox="0 0 39 38" fill="none" xmlns="http://www.w3.org/2000/svg">
<ellipse cx="19.3255" cy="19" rx="19.3254" ry="19" fill="url(#paint0_linear_5378_3337)"/>
<ellipse cx="19.3255" cy="19" rx="19.3254" ry="19" fill="white"/>
<path d="M27.8362 15.4284C27.7957 14.5269 27.6474 13.9072 27.4349 13.3702C27.2157 12.8002 26.8785 12.2898 26.4367 11.8656C26.005 11.4347 25.4823 11.0999 24.909 10.8879C24.3595 10.679 23.7322 10.5333 22.815 10.4935C21.8909 10.4504 21.5975 10.4404 19.2538 10.4404C16.9101 10.4404 16.6168 10.4504 15.6961 10.4901C14.7789 10.5299 14.1483 10.6758 13.602 10.8845C13.0219 11.0999 12.5026 11.4313 12.071 11.8656C11.6326 12.2898 11.2921 12.8035 11.0762 13.3669C10.8637 13.9072 10.7154 14.5236 10.6749 15.425C10.6311 16.3332 10.6209 16.6215 10.6209 18.9249C10.6209 21.2284 10.6311 21.5167 10.6715 22.4215C10.7119 23.3229 10.8604 23.9427 11.0729 24.4797C11.2921 25.0497 11.6326 25.5601 12.071 25.9843C12.5026 26.4152 13.0253 26.75 13.5986 26.962C14.1483 27.1709 14.7755 27.3166 15.6928 27.3564C16.6133 27.3962 16.9068 27.4061 19.2505 27.4061C21.5942 27.4061 21.8876 27.3962 22.8083 27.3564C23.7255 27.3166 24.3561 27.1709 24.9023 26.962C26.0625 26.5212 26.9797 25.6198 27.4282 24.4797C27.6406 23.9394 27.789 23.3229 27.8295 22.4215C27.8699 21.5167 27.88 21.2284 27.88 18.9249C27.88 16.6215 27.8766 16.3332 27.8362 15.4284ZM26.2817 22.3552C26.2445 23.1838 26.1029 23.6312 25.9849 23.9295C25.6948 24.6686 25.0979 25.2552 24.3459 25.5403C24.0424 25.6563 23.5839 25.7954 22.7441 25.8318C21.8336 25.8717 21.5605 25.8815 19.2573 25.8815C16.954 25.8815 16.6775 25.8717 15.7703 25.8318C14.9272 25.7954 14.472 25.6563 14.1685 25.5403C13.7942 25.4043 13.4536 25.1889 13.1771 24.9072C12.8905 24.6321 12.6713 24.3006 12.5329 23.9328C12.4149 23.6346 12.2733 23.1838 12.2363 22.3586C12.1957 21.4637 12.1857 21.1952 12.1857 18.9315C12.1857 16.6679 12.1957 16.3961 12.2363 15.5046C12.2733 14.6761 12.4149 14.2287 12.5329 13.9304C12.6713 13.5624 12.8905 13.2278 13.1805 12.9559C13.4603 12.6742 13.7975 12.4588 14.1719 12.323C14.4754 12.207 14.9341 12.0678 15.7737 12.0313C16.6842 11.9915 16.9574 11.9816 19.2606 11.9816C21.5672 11.9816 21.8403 11.9915 22.7475 12.0313C23.5906 12.0678 24.0458 12.207 24.3493 12.323C24.7236 12.4588 25.0642 12.6742 25.3407 12.9559C25.6274 13.231 25.8466 13.5624 25.9849 13.9304C26.1029 14.2287 26.2445 14.6793 26.2817 15.5046C26.3221 16.3995 26.3322 16.6679 26.3322 18.9315C26.3322 21.1952 26.3221 21.4604 26.2817 22.3552Z" fill="#1F1F1F"/>
<path d="M19.2548 14.5684C16.8066 14.5684 14.8203 16.5204 14.8203 18.9266C14.8203 21.3328 16.8066 23.2849 19.2548 23.2849C21.7031 23.2849 23.6893 21.3328 23.6893 18.9266C23.6893 16.5204 21.7031 14.5684 19.2548 14.5684ZM19.2548 21.7537C17.6665 21.7537 16.3782 20.4877 16.3782 18.9266C16.3782 17.3655 17.6665 16.0995 19.2548 16.0995C20.8431 16.0995 22.1313 17.3655 22.1313 18.9266C22.1313 20.4877 20.8431 21.7537 19.2548 21.7537Z" fill="#1F1F1F"/>
<path d="M24.8973 14.3942C24.8973 14.956 24.4336 15.4116 23.8617 15.4116C23.2899 15.4116 22.8263 14.956 22.8263 14.3942C22.8263 13.8322 23.2899 13.3767 23.8617 13.3767C24.4336 13.3767 24.8973 13.8322 24.8973 14.3942Z" fill="#1F1F1F"/>
<defs>
<linearGradient id="paint0_linear_5378_3337" x1="19.3255" y1="0" x2="19.3255" y2="38" gradientUnits="userSpaceOnUse">
<stop stop-color="#FA893D"/>
<stop offset="1" stop-color="#DE1F6F" stop-opacity="0"/>
</linearGradient>
</defs>
</svg>
