<svg width="39" height="38" viewBox="0 0 39 38" fill="none" xmlns="http://www.w3.org/2000/svg">
<ellipse cx="19.6746" cy="19" rx="19.3254" ry="19" fill="white"/>
<path d="M19.6021 10.4404H19.5977C14.8396 10.4404 10.9703 14.245 10.9703 18.9233C10.9703 20.7789 11.5787 22.4988 12.6132 23.8953L11.5377 27.0466L14.8547 26.0043C16.2193 26.8929 17.847 27.4061 19.6021 27.4061C24.3602 27.4061 28.2295 23.6005 28.2295 18.9233C28.2295 14.246 24.3602 10.4404 19.6021 10.4404ZM24.6234 22.4192C24.4152 22.9971 23.5889 23.4764 22.9298 23.6164C22.4789 23.7108 21.89 23.786 19.9073 22.9781C17.3713 21.9453 15.7382 19.4121 15.6109 19.2477C15.489 19.0834 14.5861 17.9064 14.5861 16.6891C14.5861 15.4718 15.215 14.8791 15.4685 14.6246C15.6767 14.4157 16.0208 14.3203 16.3509 14.3203C16.4577 14.3203 16.5537 14.3256 16.64 14.3298C16.8935 14.3404 17.0207 14.3553 17.1879 14.7486C17.3961 15.2417 17.9031 16.459 17.9635 16.5841C18.025 16.7092 18.0865 16.8789 18.0002 17.0433C17.9193 17.2129 17.8481 17.2882 17.7208 17.4324C17.5935 17.5766 17.4727 17.6869 17.3454 17.8417C17.2289 17.9764 17.0973 18.1206 17.244 18.3698C17.3907 18.6136 17.8977 19.4269 18.6442 20.0801C19.6075 20.9231 20.3884 21.1924 20.6678 21.3069C20.876 21.3918 21.1241 21.3716 21.2762 21.2126C21.4693 21.0079 21.7077 20.6686 21.9504 20.3346C22.123 20.0949 22.3409 20.0653 22.5696 20.1501C22.8025 20.2296 24.0355 20.8287 24.289 20.9528C24.5425 21.0779 24.7097 21.1373 24.7712 21.2423C24.8316 21.3472 24.8316 21.8403 24.6234 22.4192Z" fill="#1F1F1F"/>
</svg>
