<svg width="40" height="38" viewBox="0 0 40 38" fill="none" xmlns="http://www.w3.org/2000/svg">
<ellipse cx="20.2249" cy="19" rx="19.3254" ry="19" fill="white"/>
<path d="M28.864 14.426C28.3593 13.609 27.8116 13.4587 26.6964 13.4016C25.5824 13.3328 22.781 13.3042 20.354 13.3042C17.9224 13.3042 15.1199 13.3328 14.007 13.4005C12.8941 13.4587 12.3452 13.6079 11.8359 14.426C11.3161 15.2419 11.0486 16.6473 11.0486 19.1215C11.0486 19.1236 11.0486 19.1246 11.0486 19.1246C11.0486 19.1268 11.0486 19.1278 11.0486 19.1278V19.1299C11.0486 21.5936 11.3161 23.0095 11.8359 23.817C12.3452 24.634 12.893 24.7821 14.0058 24.8509C15.1199 24.9102 17.9224 24.9451 20.354 24.9451C22.781 24.9451 25.5824 24.9102 26.6976 24.852C27.8128 24.7832 28.3605 24.635 28.8652 23.818C29.3896 23.0106 29.6548 21.5946 29.6548 19.131C29.6548 19.131 29.6548 19.1278 29.6548 19.1257C29.6548 19.1257 29.6548 19.1236 29.6548 19.1225C29.6548 16.6473 29.3896 15.2419 28.864 14.426ZM18.0259 22.2994V15.9499L23.8404 19.1246L18.0259 22.2994Z" fill="#1F1F1F"/>
</svg>
